# AST/ASF file generated using VICON BodyLanguage
# -----------------------------------------------
:version 1.10
:name VICON
:units
  mass 1.0
  length 0.45
  angle deg
:documentation
   .ast/.asf automatically generated from VICON data using
   VICON BodyBuilder and BodyLanguage model FoxedUp or BRILLIANT.MOD
:root
   order TX TY TZ RX RY RZ
   axis XYZ
   position 0 0 0  
   orientation 0 0 0 
:bonedata
  begin
     id 1 
     name lhipjoint
     direction 0.624716 -0.669793 0.401383 
     length 2.38238 
     axis 0 0 0  XYZ
  end
  begin
     id 2 
     name lfemur
     direction 0.34202 -0.939693 0  
     length 6.4574  
     axis 0 0 20  XYZ
    dof rx ry rz
    limits (-160.0 20.0)
           (-70.0 70.0)
           (-60.0 70.0)
  end
  begin
     id 3 
     name ltibia
     direction 0.34202 -0.939693 0   
     length 7.68739   
     axis 0 0 20   XYZ
    dof rx
    limits (-10.0 170.0)
  end
  begin
     id 4 
     name lfoot
     direction 0.0681309 -0.187188 0.979959   
     length 2.46615   
     axis -90 7.62852e-016 20   XYZ
    dof rx rz
    limits (-45.0 90.0)
           (-70.0 20.0)
  end
  begin
     id 5 
     name ltoes
     direction 1.53566e-011 -4.21819e-011 1   
     length 1.2376   
     axis -90 7.62852e-016 20   XYZ
    dof rx
    limits (-90.0 20.0)
  end
  begin
     id 6 
     name rhipjoint
     direction -0.644473 -0.655875 0.393043   
     length 2.43293  
     axis 0 0 0  XYZ 
  end
  begin
     id 7 
     name rfemur
     direction -0.34202 -0.939693 0   
     length 6.7025   
     axis 0 0 -20   XYZ
    dof rx ry rz
    limits (-160.0 20.0)
           (-70.0 70.0)
           (-70.0 60.0)
  end
  begin
     id 8 
     name rtibia
     direction -0.34202 -0.939693 0   
     length 7.80547   
     axis 0 0 -20   XYZ
    dof rx
    limits (-10.0 170.0)
 end
 begin
     id 9 
     name rfoot
     direction -0.0756734 -0.207911 0.975216   
     length 2.40315  
     axis -90 -7.62852e-016 -20   XYZ
    dof rx rz
    limits (-45.0 90.0)
           (-20.0 70.0)
  end
  begin
     id 10 
     name rtoes
     direction -1.5353e-011 -4.21879e-011 1   
     length 1.20477   
     axis -90 -7.62852e-016 -20   XYZ
    dof rx
    limits (-90.0 20.0)
  end
  begin
     id 11 
     name lowerback
     direction 0.0160353 0.987463 -0.157037   
     length 2.18572   
     axis 0 0 0   XYZ
    dof rx ry rz
    limits (-20.0 45.0)
           (-30.0 30.0)
           (-30.0 30.0)
  end
  begin
     id 12 
     name upperback
     direction -0.00499661 0.999756 0.0215076   
     length 2.18016   
     axis 0 0 0   XYZ
    dof rx ry rz
    limits (-20.0 45.0)
           (-30.0 30.0)
           (-30.0 30.0)
  end
  begin
     id 13 
     name thorax
     direction -0.00921346 0.995333 0.0960619   
     length 2.24923   
     axis 0 0 0   XYZ
    dof rx ry rz
    limits (-20.0 45.0)
           (-30.0 30.0)
           (-30.0 30.0)
  end
  begin
     id 14 
     name lowerneck
     direction 0.0274184 0.991181 0.12965   
     length 1.70911   
     axis 0 0 0   XYZ
    dof rx ry rz
    limits (-20.0 45.0)
           (-30.0 30.0)
           (-30.0 30.0)
  end
  begin
     id 15 
     name upperneck
     direction 0.0015627 0.999959 -0.00893559   
     length 1.69312   
     axis 0 0 0   XYZ
    dof rx ry rz
    limits (-20.0 45.0)
           (-30.0 30.0)
           (-30.0 30.0)
  end
  begin
     id 16
     name head
     direction -0.00230242 0.999856 -0.0168327  
     length 1.80241  
     axis 0 0 0   XYZ
    dof rx ry rz
    limits (-20.0 45.0)
           (-30.0 30.0)
           (-30.0 30.0)
  end
  begin
     id 17 
     name lclavicle
     direction 0.955523 0.290741 -0.0494489  
     length 3.84275  
     axis 0 0 0   XYZ
    dof ry rz
    limits (-20.0 10.0)
           (0.0 20.0)
  end
  begin
     id 18 
     name lhumerus
     direction 1 -4.48967e-011 -3.18382e-028   
     length 5.17714   
     axis 180 -30 -90   XYZ
    dof rx ry rz
    limits (-60.0 90.0)
           (-90.0 90.0)
           (-90.0 90.0)
  end
  begin
     id 19
     name lradius
     direction 1 -4.48968e-011 -2.22911e-027   
     length 3.43679   
     axis 180 -30 -90   XYZ
    dof rx
    limits (-10.0 170.0)
  end
  begin
     id 20
     name lwrist
     direction 1 -4.48951e-011 -6.32245e-027   
     length 1.7184   
     axis 3.57107e-015 90 90   XYZ
    dof ry
    limits (-180.0 0.0)
 end
  begin
     id 21 
     name lhand
     direction 1 -4.48924e-011 -1.26431e-026   
     length 0.573117   
     axis 8.06912e-015 90 90   XYZ
    dof rx rz
    limits (-90.0 90.0)
           (-45.0 45.0)
  end
  begin
     id 22 
     name lfingers
     direction 1 -4.49001e-011 -2.52965e-026   
     length 0.462062   
     axis 1.61381e-014 90 90   XYZ
    dof rx
    limits (0.0 90.0)
  end
  begin
     id 23
     name lthumb
     direction 0.707107 -6.35008e-011 0.707107   
     length 0.663431   
     axis -90 45 -1.62303e-014   XYZ
    dof rx rz
    limits (-45.0 45.0)
           (-45.0 45.0)
  end
  begin
     id 24 
     name rclavicle
     direction -0.963917 0.256881 -0.0698287   
     length 3.73057  
     axis 0 0 0   XYZ 
    dof ry rz
    limits (-10.0 20.0)
           (-20.0 0.0)
  end
  begin
     id 25 
     name rhumerus
     direction -1 -4.48962e-011 -2.73982e-027  
     length 5.23908   
     axis 180 30 90   XYZ
    dof rx ry rz
    limits (-90.0 60.0)
           (-90.0 90.0)
           (-90.0 90.0)
  end
  begin
     id 26 
     name rradius
     direction -1 -4.48968e-011 -4.33218e-027   
     length 3.46485   
     axis 180 30 90   XYZ
    dof rx
    limits (-10.0 170.0)
  end
  begin
     id 27 
     name rwrist
     direction -1 -4.48989e-011 -6.32372e-027   
     length 1.73243   
     axis 3.57107e-015 -90 -90   XYZ
    dof ry
    limits (-180.0 0.0)
  end
  begin
     id 28
     name rhand
     direction -1 -4.48948e-011 -1.26448e-026   
     length 0.608752   
     axis 8.06912e-015 -90 -90   XYZ
    dof rx rz
    limits (-90.0 90.0)
           (-45.0 45.0)
  end
  begin
     id 29
     name rfingers
     direction -1 -4.48962e-011 -2.52913e-026   
     length 0.490792   
     axis 1.61381e-014 -90 -90   XYZ
    dof rx
    limits (0.0 90.0)
  end
  begin
     id 30
     name rthumb
     direction -0.707107 -6.34878e-011 0.707107   
     length 0.704682   
     axis -90 -45 1.62303e-014   XYZ
    dof rx rz
    limits (-45.0 45.0)
           (-45.0 45.0)
  end
:hierarchy
  begin
    root lhipjoint rhipjoint lowerback
    lhipjoint lfemur
    lfemur ltibia
    ltibia lfoot
    lfoot ltoes
    rhipjoint rfemur
    rfemur rtibia
    rtibia rfoot
    rfoot rtoes
    lowerback upperback
    upperback thorax
    thorax lowerneck lclavicle rclavicle
    lowerneck upperneck
    upperneck head
    lclavicle lhumerus
    lhumerus lradius
    lradius lwrist
    lwrist lhand lthumb
    lhand lfingers
    rclavicle rhumerus
    rhumerus rradius
    rradius rwrist
    rwrist rhand rthumb
    rhand rfingers
  end

#!OML:ASF G:\JayActor3\Patient Classification 1\Patient 1\Session 6\male.ASF
:FULLY-SPECIFIED
:DEGREES
1
root 49.795 16.0269 17.6264 176.393 -47.4275 -174.741
lowerback -1.90197 -0.311702 3.76455
upperback 3.29861 -0.667318 0.789536
thorax 4.4437 -0.245864 -1.3334
lowerneck -4.30586 -1.56811 1.35058
upperneck 2.03813 -2.29524 2.93692
head 1.37346 -1.09459 0.627246
rclavicle 3.44767e-015 -4.02539e-015
rhumerus -29.8068 -8.08598 -83.8927
rradius 28.3205
rwrist 1.65657
rhand -19.8174 -4.52633
rfingers 7.12502
rthumb 6.5161 -34.4061
lclavicle 3.44767e-015 -4.02539e-015
lhumerus -27.6358 9.97615 83.7829
lradius 24.6554
lwrist 17.3027
lhand -17.9321 9.3896
lfingers 7.12502
lthumb 8.33582 39.2051
rfemur -11.2914 2.01819 25.8301
rtibia 34.7528
rfoot -24.7549 -12.8841
rtoes 2.37242
lfemur -6.12819 9.53485 -16.6704
ltibia 26.3481
lfoot -19.6048 2.56265
ltoes -3.28754
2
root 49.7944 16.0273 17.6259 176.39 -47.4078 -174.735
lowerback -1.8955 -0.319108 3.76695
upperback 3.28601 -0.676333 0.790655
thorax 4.4264 -0.250593 -1.33398
lowerneck -4.37207 -1.5588 1.30503
upperneck 2.20922 -2.28731 2.95509
head 1.44058 -1.08719 0.64002
rclavicle 2.69229e-014 2.48481e-015
rhumerus -29.8086 -8.04196 -83.9072
rradius 28.3075
rwrist 1.63806
rhand -19.8208 -4.52534
rfingers 7.12502
rthumb 6.51285 -34.4052
lclavicle 2.69229e-014 2.48481e-015
lhumerus -27.6944 10.0014 83.7662
lradius 24.6916
lwrist 17.31
lhand -17.9199 9.44079
lfingers 7.12502
lthumb 8.34768 39.2558
rfemur -11.2961 2.0202 25.8304
rtibia 34.7618
rfoot -24.8048 -12.817
rtoes 2.59112
lfemur -6.11349 9.47054 -16.6773
ltibia 26.3334
lfoot -19.5998 2.63506
ltoes -3.35557
3
root 49.796 16.0273 17.6258 176.389 -47.43 -174.726
lowerback -1.87709 -0.277603 3.79059
upperback 3.29954 -0.619129 0.741783
thorax 4.43232 -0.220058 -1.39439
lowerneck -4.39633 -1.64488 1.5257
upperneck 2.21567 -2.40915 2.78323
head 1.44193 -1.1488 0.546109
rclavicle -8.59247e-014 -5.71506e-015
rhumerus -29.8168 -8.16368 -83.945
rradius 28.3606
rwrist 1.61976
rhand -19.8312 -4.62676
rfingers 7.12502
rthumb 6.50274 -34.5069
lclavicle -8.59247e-014 -5.71506e-015
lhumerus -27.6314 9.75532 83.7815
lradius 24.6737
lwrist 17.3435
lhand -17.9513 9.45669
lfingers 7.12502
lthumb 8.31736 39.2729
rfemur -11.308 2.00964 25.8428
rtibia 34.7589
rfoot -24.7522 -12.8835
rtoes 2.36019
lfemur -6.13194 9.43723 -16.6721
ltibia 26.3412
lfoot -19.5829 2.65369
ltoes -3.41433
4
root 49.7967 16.027 17.6252 176.39 -47.4287 -174.728
lowerback -1.86935 -0.298637 3.76362
upperback 3.28721 -0.645988 0.759836
thorax 4.41397 -0.23508 -1.36204
lowerneck -4.37325 -1.60351 1.40005
upperneck 2.23173 -2.35042 2.88405
head 1.44603 -1.11873 0.600232
rclavicle -8.53283e-014 1.59028e-015
rhumerus -29.8212 -8.07675 -83.9291
rradius 28.3455
rwrist 1.62796
rhand -19.8 -4.60317
rfingers 7.12502
rthumb 6.53286 -34.4824
lclavicle -8.53283e-014 1.59028e-015
lhumerus -27.6757 9.83528 83.777
lradius 24.6877
lwrist 17.3333
lhand -17.9408 9.44022
lfingers 7.12502
lthumb 8.32747 39.2561
rfemur -11.3064 2.02039 25.8464
rtibia 34.7601
rfoot -24.7644 -12.8908
rtoes 2.40476
lfemur -6.13571 9.47177 -16.6684
ltibia 26.3439
lfoot -19.5861 2.63636
ltoes -3.46418
5
root 49.7972 16.0271 17.6249 176.401 -47.4222 -174.73
lowerback -1.86938 -0.288459 3.76758
upperback 3.28372 -0.63144 0.744287
thorax 4.4109 -0.227349 -1.37949
lowerneck -4.37904 -1.61515 1.41804
upperneck 2.258 -2.36792 2.88042
head 1.45528 -1.12694 0.595531
rclavicle 6.97113e-014 -3.47873e-015
rhumerus -29.8223 -8.09275 -83.9374
rradius 28.3474
rwrist 1.63229
rhand -19.795 -4.62122
rfingers 7.12502
rthumb 6.53775 -34.5003
lclavicle 6.97113e-014 -3.47873e-015
lhumerus -27.6802 9.78307 83.7729
lradius 24.697
lwrist 17.3417
lhand -17.9411 9.43763
lfingers 7.12502
lthumb 8.32716 39.2535
rfemur -11.3176 2.02775 25.8475
rtibia 34.7584
rfoot -24.7593 -12.8999
rtoes 2.3929
lfemur -6.14928 9.46287 -16.673
ltibia 26.3515
lfoot -19.5883 2.65807
ltoes -3.50722
6
root 49.7976 16.0272 17.6246 176.416 -47.4131 -174.734
lowerback -1.87304 -0.276628 3.77215
upperback 3.28063 -0.614811 0.727361
thorax 4.4104 -0.218474 -1.39863
lowerneck -4.37792 -1.62699 1.43718
upperneck 2.26835 -2.38534 2.88133
head 1.45828 -1.13538 0.592134
rclavicle -1.1217e-013 7.95139e-015
rhumerus -29.8215 -8.11393 -83.9447
rradius 28.348
rwrist 1.64056
rhand -19.7931 -4.6383
rfingers 7.12502
rthumb 6.53958 -34.5173
lclavicle -1.1217e-013 7.95139e-015
lhumerus -27.6809 9.72818 83.7684
lradius 24.7054
lwrist 17.3507
lhand -17.9471 9.41882
lfingers 7.12502
lthumb 8.3214 39.2349
rfemur -11.3333 2.03804 25.8483
rtibia 34.7606
rfoot -24.7539 -12.9113
rtoes 2.36659
lfemur -6.1624 9.46034 -16.6775
ltibia 26.3553
lfoot -19.5899 2.67573
ltoes -3.54731
7
root 49.7978 16.0274 17.6243 176.435 -47.3997 -174.738
lowerback -1.88298 -0.265932 3.77889
upperback 3.27617 -0.600017 0.711161
thorax 4.41196 -0.210406 -1.41837
lowerneck -4.3751 -1.6356 1.45004
upperneck 2.27947 -2.39817 2.88521
head 1.46132 -1.14151 0.590844
rclavicle 7.84019e-014 -1.11319e-014
rhumerus -29.8176 -8.13422 -83.9496
rradius 28.3417
rwrist 1.65342
rhand -19.7938 -4.65076
rfingers 7.12502
rthumb 6.5389 -34.5298
lclavicle 7.84019e-014 -1.11319e-014
lhumerus -27.6854 9.68479 83.762
lradius 24.7154
lwrist 17.359
lhand -17.9607 9.39567
lfingers 7.12502
lthumb 8.30822 39.2123
rfemur -11.3528 2.0486 25.8471
rtibia 34.7633
rfoot -24.7504 -12.9139
rtoes 2.35681
lfemur -6.17671 9.45874 -16.6836
ltibia 26.3562
lfoot -19.5898 2.69602
ltoes -3.60129
8
root 49.7978 16.0275 17.6239 176.449 -47.3841 -174.741
lowerback -1.8912 -0.257328 3.78665
upperback 3.27248 -0.588167 0.697035
thorax 4.41323 -0.203838 -1.43669
lowerneck -4.3691 -1.64182 1.45895
upperneck 2.28858 -2.40735 2.88825
head 1.46318 -1.14591 0.590081
rclavicle -6.29837e-014 3.27995e-015
rhumerus -29.8128 -8.14522 -83.9549
rradius 28.3357
rwrist 1.66519
rhand -19.7963 -4.67583
rfingers 7.12502
rthumb 6.53651 -34.555
lclavicle -6.29837e-014 3.27995e-015
lhumerus -27.6921 9.65019 83.7551
lradius 24.724
lwrist 17.3655
lhand -17.9804 9.37778
lfingers 7.12502
lthumb 8.28927 39.1952
rfemur -11.3682 2.05923 25.8478
rtibia 34.7664
rfoot -24.7452 -12.9168
rtoes 2.33863
lfemur -6.18578 9.45724 -16.6865
ltibia 26.3565
lfoot -19.5892 2.71715
ltoes -3.65293
9
root 49.7978 16.0276 17.6234 176.454 -47.3708 -174.739
lowerback -1.89336 -0.252392 3.79177
upperback 3.26903 -0.581201 0.688699
thorax 4.41111 -0.200016 -1.44778
lowerneck -4.36345 -1.64652 1.46481
upperneck 2.30271 -2.41389 2.88081
head 1.46656 -1.14905 0.586621
rclavicle -1.29949e-013 7.55382e-015
rhumerus -29.8085 -8.14256 -83.9567
rradius 28.3324
rwrist 1.67139
rhand -19.7961 -4.70929
rfingers 7.12502
rthumb 6.53668 -34.5884
lclavicle -1.29949e-013 7.55382e-015
lhumerus -27.7018 9.62307 83.7529
lradius 24.7304
lwrist 17.372
lhand -18.0037 9.36469
lfingers 7.12502
lthumb 8.26675 39.1829
rfemur -11.3779 2.06678 25.8518
rtibia 34.7691
rfoot -24.7397 -12.9183
rtoes 2.32313
lfemur -6.19058 9.46081 -16.6836
ltibia 26.3568
lfoot -19.5882 2.72697
ltoes -3.69673
10
root 49.7978 16.0276 17.6229 176.461 -47.3606 -174.735
lowerback -1.90035 -0.254669 3.79175
upperback 3.26442 -0.584196 0.687732
thorax 4.4101 -0.201469 -1.44897
lowerneck -4.35075 -1.64483 1.45488
upperneck 2.31616 -2.41058 2.87259
head 1.46861 -1.14741 0.585883
rclavicle 2.8215e-014 -8.15017e-015
rhumerus -29.8044 -8.11118 -83.9567
rradius 28.3327
rwrist 1.66897
rhand -19.7816 -4.73896
rfingers 7.12502
rthumb 6.55065 -34.6177
lclavicle 2.8215e-014 -8.15017e-015
lhumerus -27.7182 9.62483 83.7516
lradius 24.7366
lwrist 17.3711
lhand -18.017 9.37223
lfingers 7.12502
lthumb 8.2539 39.191
rfemur -11.3887 2.07363 25.857
rtibia 34.7709
rfoot -24.733 -12.921
rtoes 2.31593
lfemur -6.19946 9.46965 -16.6788
ltibia 26.3583
lfoot -19.5834 2.73101
ltoes -3.73758
11
root 49.7978 16.0275 17.6225 176.461 -47.3507 -174.73
lowerback -1.90307 -0.258658 3.79169
upperback 3.26118 -0.589521 0.689129
thorax 4.40798 -0.20418 -1.4478
lowerneck -4.33931 -1.64326 1.44644
upperneck 2.33055 -2.40712 2.8554
head 1.47102 -1.14579 0.582094
rclavicle -4.14466e-014 1.59028e-014
rhumerus -29.8028 -8.06248 -83.9583
rradius 28.341
rwrist 1.65345
rhand -19.7765 -4.77503
rfingers 7.12502
rthumb 6.55555 -34.6536
lclavicle -4.14466e-014 1.59028e-014
lhumerus -27.7353 9.63245 83.7514
lradius 24.7416
lwrist 17.369
lhand -18.023 9.37819
lfingers 7.12502
lthumb 8.24817 39.1972
rfemur -11.3942 2.08063 25.8639
rtibia 34.7714
rfoot -24.7261 -12.9236
rtoes 2.31002
lfemur -6.20489 9.47438 -16.6721
ltibia 26.3611
lfoot -19.5785 2.73665
ltoes -3.7744
